# xmcd CD database file
#
# Track frame offsets:
#	150
#	17066
#	34230
#	50573
#	66290
#	83519
#	101215
#	120483
#	135254
#	149292
#	164947
#	183179
#
# Disc length: 2486 seconds
#
# Revision: 1
# Processed by: cddbd v1.5.1PL2 Copyright (c) Steve Scherf et al.
# Submitted via: jetAudio 5
#
DISCID=a409b40c
DTITLE=Blue - Blue
DYEAR=1900
DGENRE=
TTITLE0=All Rise
TTITLE1=Too Close
TTITLE2=These Temptation
TTITLE3=If You Come Back
TTITLE4=Fly By
TTITLE5=Bounce
TTITLE6=Long Time
TTITLE7=Make It Happen
TTITLE8=Back To You
TTITLE9=Girl I'll Never
TTITLE10=Understand
TTITLE11=Back Someday
EXTD=
EXTT0=
EXTT1=
EXTT2=
EXTT3=
EXTT4=
EXTT5=
EXTT6=
EXTT7=
EXTT8=
EXTT9=
EXTT10=
EXTT11=
PLAYORDER=
